<!--
  PLACEHOLDER screenshot — "Library" screen.
  Replace with a real app screenshot at assets/screenshot-2.png (phone ratio ~9:19.5).
-->
<svg xmlns="http://www.w3.org/2000/svg" viewBox="0 0 360 780" width="360" height="780" role="img" aria-label="FluentFable library screen showing a grid of Korean book covers">
  <defs><clipPath id="ph2"><rect width="360" height="780" rx="28"/></clipPath></defs>
  <g clip-path="url(#ph2)">
    <rect width="360" height="780" fill="#fbf9f8"/>
    <text x="24" y="56" fill="#9a9c9f" font-family="Inter, system-ui, sans-serif" font-size="11" font-weight="700" letter-spacing="1.6">LIBRARY</text>
    <text x="24" y="86" fill="#1b1c1c" font-family="Fraunces, Georgia, serif" font-size="26" font-weight="500">Your shelf</text>
    <line x1="24" y1="108" x2="336" y2="108" stroke="#e4e2e2" stroke-width="1"/>
    <!-- book covers: slate cover motif -->
    <!-- row 1 -->
    <g>
      <rect x="24" y="132" width="140" height="196" rx="8" fill="#353c47"/>
      <line x1="40" y1="156" x2="148" y2="156" stroke="#faf8f5" stroke-opacity="0.45" stroke-width="1"/>
      <line x1="40" y1="304" x2="148" y2="304" stroke="#faf8f5" stroke-opacity="0.45" stroke-width="1"/>
      <text x="94" y="232" fill="#faf8f5" font-family="Noto Serif KR, Fraunces, serif" font-size="30" font-weight="500" text-anchor="middle">감자</text>
      <text x="94" y="290" fill="#faf8f5" fill-opacity="0.7" font-family="Inter, sans-serif" font-size="11" text-anchor="middle">김동인</text>
      <rect x="24" y="320" width="44" height="3" rx="1.5" fill="#202631"/>
      <rect x="68" y="320" width="96" height="3" rx="1.5" fill="#eceaea"/>
    </g>
    <g>
      <rect x="196" y="132" width="140" height="196" rx="8" fill="#353c47"/>
      <line x1="212" y1="156" x2="320" y2="156" stroke="#faf8f5" stroke-opacity="0.45" stroke-width="1"/>
      <line x1="212" y1="304" x2="320" y2="304" stroke="#faf8f5" stroke-opacity="0.45" stroke-width="1"/>
      <text x="266" y="232" fill="#faf8f5" font-family="Noto Serif KR, Fraunces, serif" font-size="30" font-weight="500" text-anchor="middle">날개</text>
      <text x="266" y="290" fill="#faf8f5" fill-opacity="0.7" font-family="Inter, sans-serif" font-size="11" text-anchor="middle">이상</text>
      <rect x="196" y="320" width="120" height="3" rx="1.5" fill="#eceaea"/>
    </g>
    <!-- row 2 -->
    <g>
      <rect x="24" y="356" width="140" height="196" rx="8" fill="#353c47"/>
      <line x1="40" y1="380" x2="148" y2="380" stroke="#faf8f5" stroke-opacity="0.45" stroke-width="1"/>
      <line x1="40" y1="528" x2="148" y2="528" stroke="#faf8f5" stroke-opacity="0.45" stroke-width="1"/>
      <text x="94" y="450" fill="#faf8f5" font-family="Noto Serif KR, Fraunces, serif" font-size="22" font-weight="500" text-anchor="middle">운수 좋은 날</text>
      <text x="94" y="514" fill="#faf8f5" fill-opacity="0.7" font-family="Inter, sans-serif" font-size="11" text-anchor="middle">현진건</text>
      <rect x="24" y="544" width="120" height="3" rx="1.5" fill="#eceaea"/>
    </g>
    <g>
      <rect x="196" y="356" width="140" height="196" rx="8" fill="#353c47"/>
      <line x1="212" y1="380" x2="320" y2="380" stroke="#faf8f5" stroke-opacity="0.45" stroke-width="1"/>
      <line x1="212" y1="528" x2="320" y2="528" stroke="#faf8f5" stroke-opacity="0.45" stroke-width="1"/>
      <text x="266" y="442" fill="#faf8f5" font-family="Noto Serif KR, Fraunces, serif" font-size="22" font-weight="500" text-anchor="middle">메밀꽃</text>
      <text x="266" y="470" fill="#faf8f5" font-family="Noto Serif KR, Fraunces, serif" font-size="22" font-weight="500" text-anchor="middle">필 무렵</text>
      <text x="266" y="514" fill="#faf8f5" fill-opacity="0.7" font-family="Inter, sans-serif" font-size="11" text-anchor="middle">이효석</text>
      <rect x="196" y="544" width="120" height="3" rx="1.5" fill="#eceaea"/>
    </g>
    <!-- import row -->
    <rect x="24" y="584" width="312" height="64" rx="10" fill="none" stroke="#c5c6cb" stroke-width="1" stroke-dasharray="5 4"/>
    <text x="180" y="612" fill="#5c5e63" font-family="Inter, sans-serif" font-size="14" font-weight="600" text-anchor="middle">+ Import an EPUB</text>
    <text x="180" y="632" fill="#9a9c9f" font-family="Inter, sans-serif" font-size="12" text-anchor="middle">Bring your own books</text>
  </g>
  <rect x="0.5" y="0.5" width="359" height="779" rx="28" fill="none" stroke="#e4e2e2" stroke-width="1"/>
</svg>
